<?xml version="1.0" encoding="utf-8"?>
<!-- Generator: Adobe Illustrator 24.0.1, SVG Export Plug-In . SVG Version: 6.00 Build 0)  -->
<svg version="1.1" id="Layer_1" xmlns="http://www.w3.org/2000/svg" xmlns:xlink="http://www.w3.org/1999/xlink" x="0px" y="0px"
	 viewBox="0 0 990 781.2" style="enable-background:new 0 0 990 781.2;" xml:space="preserve">
<g>
	<path d="M749.4,515.9c0,76.6,0,153.2,0,229.8c0,1.9-0.1,3.7-0.5,5.6c-1.4,6.4-6.6,11.2-13.1,12c-1.2,0.2-2.4,0.2-3.6,0.2
		c-5.5,0-11,0-16.5,0c-132.6,0-265.1,0-397.7,0c-1.8,0-3.5,0-5.3-0.2c-7.7-0.9-13.4-7.2-13.6-14.9c0-0.9,0-1.9,0-2.8
		c0-22.5,0-45.1,0-67.6c0-4.8,0.6-4.2-4.1-4.2c-28.3,0-56.6,0-85,0c-4.7,0-9.3-0.8-13.6-2.6c-4.8-2-8.9-5-12.3-9
		c-1.4-1.6-2.7-3.3-3.7-5.2c-2.8-5.1-4.3-10.4-4.3-16.3c0-28,0-55.9,0-83.9c0-54.5,0-109,0-163.5c0-4.7,0.6-9.3,2.2-13.7
		c0.5-1.2,1-2.4,1.6-3.6c3.4-6.4,8.5-11.3,15-14.5c4.3-2.1,8.9-3.2,13.8-3.2c1.1,0,2.2,0,3.4,0c27.7,0,55.3,0,83,0c1,0,2,0,3.1-0.1
		c0.7,0,1-0.4,1-1.1c0-0.9,0-1.9,0-2.8c0-22.9,0-45.8,0-68.8c0-1.7,0-3.3,0.4-5c1.7-6.9,7.6-11.7,14.7-12c0.8,0,1.7,0,2.5,0
		c138.4,0,276.7,0,415.1,0c1.5,0,3,0,4.5,0.2c7.6,1.3,12.9,7.4,13.2,15.1c0,1.1,0,2.2,0,3.4C749.4,363.5,749.4,439.7,749.4,515.9z
		 M299,515.1c0-29.7,0-59.4,0-89.1c0-2.8,0-5.6,0-8.4c0-2.5,0-2.5-2.5-2.5c-14.7,0-29.4,0-44.1,0c-1.8,0-3.8,0.1-5.5,0.6
		c-8.4,2.4-13.2,10.2-12.9,16.6c0,0.6,0,1.1,0,1.7c0,54,0,108,0,162.1c0,0.7,0,1.5,0,2.2c0.3,6.4,3.3,11.1,8.7,14.4
		c3.1,1.9,6.6,2.4,10.2,2.4c14.3,0,28.7,0,43,0c0.7,0,1.3,0,2,0c0.6,0,1.1-0.4,1.1-1c0-0.9,0-1.9,0-2.8
		C299,579.2,299,547.1,299,515.1z M542.4,384.7c-2.8,0-5.6,0-8.4,0c-4,0-3.7-0.4-4.8,3.7c-2,6.9-3.4,13.9-5,20.9
		c-3.5,15.6-6.8,31.3-9.8,47c-2.4,12.3-4.7,24.7-7,37c-1.3,7.2-2.5,14.5-3.7,21.7c-1.6,9.3-3.1,18.5-4.6,27.8
		c-1.8,10.4-3.6,20.7-5.4,31.1c-1.7,10-3.5,20-5.2,30c-2,11.5-4,22.9-6,34.4c-0.4,2.1-0.7,4.2-1,6.3c-0.1,1,0.4,1.6,1.4,1.6
		c0.3,0,0.6,0,0.8-0.1c2.1-0.7,4-0.2,6,0.4c2.1,0.6,4.2,0.8,6.3,0.6c4-0.4,8-0.7,12-1c2-0.2,3.9,0,5.8,0.6c1.1,0.4,2.2,0.4,3.3,0.4
		c2.3-0.1,4.4-0.8,6.5-1.6c1.7-0.7,2.6-1.8,2.9-3.7c1-5.3,2.2-10.6,3.2-15.9c4.6-23.1,9.1-46.2,13.7-69.3
		c4.4-22.4,8.8-44.7,13.2-67.1c4.4-22.4,8.8-44.7,13.2-67.1c1.8-9,3.5-18.1,5-27.2c0.3-2.2,0.6-4.2-0.4-6.3
		c-0.3-0.6-0.2-1.3-0.3-1.9c-0.2-0.9-0.4-1.1-1.3-1.2c-0.7-0.1-1.5,0-2.2-0.1c-5.1-0.2-10.2-0.3-15.3-0.7
		C551,384.7,546.7,384.6,542.4,384.7z M724.3,509.8c-0.1-0.5-0.5-0.8-0.8-1.1c-2.6-2.5-5.5-4.8-8.4-6.9
		c-9.9-7.1-20.1-13.8-30.2-20.6c-9.3-6.2-18.8-12.1-27.5-19.1c-0.5-0.4-1.1-0.8-1.6-1.1c-8.8-5.8-17.6-11.6-26.4-17.3
		c-2.1-1.4-4.3-2.6-6.5-3.9c-1-0.6-2.2-1.1-3.3-1.6c-2.1-0.8-2.7-0.7-4,1.2c-0.1,0.2-0.2,0.3-0.3,0.5c-2.4,4.2-4.4,8.6-5.8,13.3
		c-0.4,1.3-0.9,2.6-1.6,3.8c-1.2,2-2.2,4.1-1.9,6.6c0.1,1-0.2,1.8-0.7,2.7c-0.8,1.5-1.7,2.9-3,4c-1.1,1-1.1,1.3-0.6,2.7
		c0.7,1.7,2,2.8,3.6,3.7c15,8.9,30.3,17.5,45.6,26.1c3.3,1.8,6.5,3.7,9.7,5.5c0.6,0.4,1.4,0.6,1.6,1.5c-0.5,0.3-1.1,0.7-1.6,1
		c-4.2,2.4-8.5,4.7-12.7,7.1c-5.3,3-10.5,6-15.7,9.1c-9.4,5.6-18.3,11.8-27.2,18.1c-1.2,0.8-2.2,1.7-2.9,3c-1.1,1.9-1,2.3,0.6,3.8
		c0.3,0.3,0.7,0.7,0.9,1c1.4,1.9,2.6,3.8,2.3,6.4c-0.2,1.4,0.4,2.8,1.1,4c1.3,2.3,2.3,4.6,3,7.2c0,0.1,0.1,0.2,0.1,0.3
		c1.8,4,3.5,8,5.3,12c0.4,0.8,0.8,1.7,1.3,2.5c0.3,0.6,0.8,0.8,1.4,0.5c0.8-0.4,1.6-0.9,2.5-1.3c10.8-6.3,21.2-13.2,31.4-20.4
		c0.6-0.4,1.2-0.9,1.7-1.4c1.5-1.7,3.3-3,5.2-4.2c17.5-12.2,35-24.4,52.2-37c4.3-3.1,8.4-6.5,12.3-10.1
		C723.7,510.7,724.2,510.4,724.3,509.8z M328.7,509.6c0.3,1,0.9,1.4,1.5,1.9c5.5,5.2,11.6,9.7,17.7,14c15.7,11.1,31.3,22.1,47,33.2
		c1.1,0.8,2.3,1.6,3.3,2.6c1.4,1.5,3.1,2.7,4.8,3.9c2.5,1.7,4.9,3.4,7.4,5c7.3,5,14.8,9.7,22.4,14.2c0.8,0.5,1.6,0.9,2.5,1.3
		c0.4,0.2,0.7,0.1,1-0.3c0.3-0.5,0.6-0.9,0.8-1.4c2.1-4.7,4.2-9.4,6.2-14c0.2-0.4,0.4-0.9,0.4-1.3c0.2-1.4,0.8-2.6,1.6-3.8
		c1.2-2,2.2-4.1,1.9-6.6c-0.1-0.9,0.2-1.7,0.6-2.4c0.8-1.6,1.7-3.1,3.1-4.2c1.1-0.9,1.1-1.4,0.6-2.7c-0.7-1.6-1.9-2.7-3.3-3.7
		c-10.5-7.4-21.1-14.7-32.2-21.1c-7.7-4.4-15.4-8.7-23.1-13c-0.7-0.4-1.5-0.6-1.9-1.4c0.4-0.7,1-0.9,1.6-1.3
		c2.2-1.3,4.3-2.6,6.5-3.8c15.5-8.6,30.9-17.3,46.1-26.3c1.3-0.8,2.6-1.5,3.8-2.3c1.3-0.8,2.1-2.1,2.7-3.5c0.3-0.8,0.2-1.5-0.5-2
		c-1.5-1.1-2.5-2.7-3.4-4.4c-0.3-0.7-0.6-1.4-0.6-2.1c0.3-2.9-0.8-5.3-2.3-7.6c-0.4-0.6-0.7-1.3-0.9-2c-1.2-4.7-3.3-9.1-5.6-13.4
		c-0.5-0.9-1.1-1.7-1.7-2.5c-0.4-0.6-1.1-0.8-1.8-0.6c-0.8,0.2-1.6,0.5-2.4,0.8c-2.1,1.1-4.1,2.1-6.1,3.4c-5.4,3.4-10.7,6.8-16,10.3
		c-6.8,4.5-13.8,8.8-20.2,14c-0.6,0.5-1.4,1-2.1,1.4c-9.4,6.3-18.7,12.5-28.1,18.8c-6.3,4.3-12.6,8.6-18.9,12.9
		c-3.1,2.1-6.1,4.3-8.9,6.7C331.1,507.4,329.9,508.5,328.7,509.6z"/>
	<path d="M544.3,193.5c-0.1,12.2-1.5,27-5,41.5c-0.4,1.7-0.8,3.4-1.4,5.1C535,248,527.8,253,519.4,253c-8.9,0-15.9-6-18.2-13.2
		c-1.1-3.3-1.3-6.6-0.6-9.9c0.9-4,1.9-8,2.6-12c1.1-6.6,1.9-13.3,2.1-20c0.3-8.1,0.2-16.2-0.7-24.3c-1.4-13.7-4.4-27-9.1-39.9
		c-2.6-7.1-4.9-14.2-6.6-21.6c-2.5-11-3.4-22.1-2.6-33.3c1.4-19.3,7.7-36.9,19.6-52.3c1.8-2.4,3.8-4.6,5.9-6.7
		c0.8-0.8,1.7-1.5,2.5-2.2c1.9-1.5,3.9-2.3,6.4-2.2c3.9,0.2,7.8,0.1,11.7,0c1.4,0,2.5,0.4,3.7,1.1c9.9,6,12.3,19.4,5.1,28.5
		c-0.5,0.6-1,1.2-1.5,1.7c-6.9,7-11,15.4-13.3,24.8c-2.1,8.5-2.2,17.1-0.9,25.8c1.1,7.3,3.1,14.4,5.6,21.3
		c5,13.4,8.5,27.2,10.7,41.3C543.5,170,544.3,180.3,544.3,193.5z"/>
	<path d="M622.6,15.3c2.2,0,4.5,0,6.7,0c1.2,0,2.2,0.3,3.2,0.9c10.1,5.9,12.7,19.7,5.3,28.8c-0.4,0.5-0.8,1-1.3,1.5
		c-6.8,6.8-10.8,15.1-13.2,24.3c-2,7.7-2.3,15.4-1.5,23.3c0.8,8,2.8,15.8,5.6,23.3c4.3,11.6,7.7,23.5,9.9,35.7
		c1.6,8.9,2.7,17.9,3.2,26.9c0.4,7.9,0.4,15.8-0.1,23.7c-0.7,11.4-2.3,22.6-5.2,33.6c-0.4,1.5-0.9,3-1.5,4.5
		c-2.9,6.4-10.1,12.3-20.4,10.9c-7.1-1-14.4-6.4-16.2-15.6c-0.5-2.8-0.4-5.6,0.3-8.3c1-4,1.9-8,2.6-12c1.1-6.8,1.8-13.7,2-20.6
		c0.7-22-2.8-43.4-10.5-64.1c-3.1-8.2-5.5-16.6-7-25.3c-2-11.2-2.5-22.4-1-33.7c1.9-15,6.9-28.9,15.2-41.6c2.8-4.2,5.9-8.1,9.5-11.7
		c0.8-0.8,1.6-1.5,2.5-2.3c2-1.7,4.2-2.7,6.9-2.4C619.2,15.5,620.9,15.3,622.6,15.3z"/>
	<path d="M448.8,32.8c0,5.2-1.8,9.7-5.3,13.4c-1.4,1.5-2.8,3-4.1,4.6c-5.4,7.3-8.8,15.5-10.3,24.5c-2,11.5-0.7,22.8,2.5,34
		c1,3.3,2.1,6.6,3.2,9.8c5.2,14.1,8.8,28.7,10.9,43.6c1.8,12.6,2.3,25.2,1.7,37.9c-0.6,12.5-2.2,24.8-5.4,37c-1,3.8-2.6,7.2-5.5,9.9
		c-5.6,5.3-12.2,6.8-19.4,4.6c-7.3-2.3-11.6-7.4-13.2-14.9c-0.6-3-0.4-5.9,0.4-8.9c3.8-14.6,5-29.5,4.4-44.6
		c-0.7-17.5-4.1-34.4-10.1-50.8c-3-8.1-5.5-16.4-7.1-24.9c-3.5-18.8-2.7-37.3,3.6-55.4c3.4-9.7,8.2-18.6,14.5-26.6
		c1.8-2.3,3.7-4.4,5.8-6.5c1.1-1.1,2.3-2.1,3.7-3c1.3-0.8,2.6-1.3,4.2-1.3c4.2,0.1,8.4,0.1,12.6,0c1.5,0,2.7,0.4,3.9,1.2
		C445.4,20,448.8,26.1,448.8,32.8z"/>
</g>
</svg>
